<svg width="620" height="456" viewBox="0 0 620 456" fill="none" xmlns="http://www.w3.org/2000/svg">
<path d="M66.5855 158.3C-33.3278 -6.68433 490.911 -4.05964 536.838 130.696C582.764 265.451 488.713 203.737 563.22 318.796C637.728 433.855 357.287 422.07 282.779 419.383C208.272 416.695 119.352 350.065 119.352 350.065C119.352 350.065 166.499 323.285 66.5855 158.3Z" fill="#D7E2F5"/>
<path d="M15.0096 148.572C-103.72 -44.0748 519.248 -41.0101 573.823 116.339C628.399 273.688 516.635 201.627 605.175 335.977C693.714 470.327 360.458 456.567 271.919 453.428C183.38 450.29 77.713 372.488 77.713 372.488C68.926 315.977 133.739 341.218 15.0096 148.572Z" fill="#E7DADA" fill-opacity="0.24"/>
<path d="M15.8609 148.047C1.12227 124.133 -2.01665 103.415 3.64666 85.7273C9.31952 68.0101 23.8945 53.1088 45.057 41.0034C87.4 16.7823 155.645 4.02837 229.452 2.20672C303.227 0.385851 382.396 9.4917 446.499 28.8601C478.551 38.5444 506.799 50.7832 528.716 65.4767C550.639 80.1743 566.153 97.2772 572.879 116.667C586.5 155.94 589.702 180.79 588.299 198.065C586.996 214.09 581.732 223.664 576.956 232.35C576.595 233.005 576.238 233.656 575.885 234.304C573.367 238.924 571.065 243.452 569.766 248.689C568.462 253.945 568.178 259.867 569.616 267.297C572.482 282.099 582.196 302.926 604.34 336.527C615.338 353.216 619.702 367.479 618.909 379.661C618.118 391.814 612.184 402.052 602.25 410.695C582.309 428.045 546.443 438.794 504.797 445.273C423.899 457.858 322.064 454.219 275.772 452.565C274.454 452.518 273.181 452.473 271.954 452.429C227.919 450.868 179.533 430.723 142.082 410.898C123.372 400.994 107.423 391.186 96.1521 383.856C90.517 380.191 86.0524 377.145 82.9979 375.017C81.4707 373.953 80.2962 373.118 79.5041 372.55C79.1285 372.281 78.839 372.071 78.6386 371.926C76.5848 358.252 78.9241 349.498 81.8495 341.08C82.2315 339.981 82.6247 338.885 83.02 337.783C85.6952 330.326 88.4731 322.583 88.5898 311.591C88.7237 298.985 85.3675 282.171 74.5824 256.497C63.7966 230.822 45.5558 196.229 15.8609 148.047Z" stroke="#1EE6E6" stroke-opacity="0.17" stroke-width="2"/>
</svg>
